<svg xmlns="http://www.w3.org/2000/svg" xmlns:xlink="http://www.w3.org/1999/xlink" viewBox="0 0 1556.35 2180.15"><defs><style>.cls-1{fill:#2062af;}.cls-2{fill:#3c9cd7;}.cls-3{fill:#fff;}.cls-4{fill:url(#linear-gradient);}.cls-5{fill:url(#linear-gradient-2);}.cls-6{fill:url(#linear-gradient-3);}.cls-7{opacity:0.05;isolation:isolate;}.cls-8{fill:url(#linear-gradient-4);}</style><linearGradient id="linear-gradient" x1="-550.42" y1="-6.72" x2="-550.42" y2="-87.52" gradientTransform="translate(3106.28 1358.76) scale(4.64)" gradientUnits="userSpaceOnUse"><stop offset="0.39" stop-color="#d1d3d4" stop-opacity="0"/><stop offset="1" stop-color="#d1d3d4"/></linearGradient><linearGradient id="linear-gradient-2" x1="-449.46" y1="-47.02" x2="-449.46" y2="-131.01" xlink:href="#linear-gradient"/><linearGradient id="linear-gradient-3" x1="-599.02" y1="29.32" x2="-404.95" y2="29.32" gradientTransform="translate(3106.28 1358.76) scale(4.64)" gradientUnits="userSpaceOnUse"><stop offset="0" stop-color="#e8e7e5"/><stop offset="1" stop-color="#fff"/></linearGradient><linearGradient id="linear-gradient-4" x1="-607.95" y1="-110.45" x2="-397.25" y2="-110.45" xlink:href="#linear-gradient-3"/></defs><g id="Layer_2" data-name="Layer 2"><g id="Layer_1-2" data-name="Layer 1"><path class="cls-1" d="M1410.43,2009.9,778.17,2180.15,145.9,2009.9,0,429.26H1556.35Z"/><path class="cls-2" d="M778.17,557.29V2044.37l1.43.39L1291.26,1907l118.1-1349.69Z"/><path d="M419.34,197V103H556.6V0H316.39V291H556.6V197ZM803.52,103h96V0H659.25V103c32.14,32.14,48.9,47.52,95.39,94-27.18,0-95.39.1-95.39.09V291H899.48V197l-96-94.08ZM1144,103h96V0H999.72V103c32.14,32.14,48.91,47.52,95.4,94-27.17,0-95.4.1-95.4.09V291H1240V197L1144,103Z"/><path class="cls-3" d="M777.6,952.51,325.07,1141l15,186.59L777.6,1140.5l465.41-199,19.3-190.88L777.6,952.51Z"/><path class="cls-4" d="M325.07,1141l15,186.59L777.6,1140.5v-188Z"/><path class="cls-5" d="M1262.31,750.64,777.6,952.51v188l465.41-199Z"/><path class="cls-6" d="M325.77,1141l15,186.59,671.32,2.14-15,248.8-220.9,62.19-212.35-53.62L551,1432.66H353.64l25.74,298.11,398.94,118,396.78-115.82L1226.58,1141Z"/><path class="cls-7" d="M777.6,1141H325.07l15,186.59L777.6,1329V1141Zm0,499.12-2.14.6-212.33-53.62-12.86-154.42H353l25.73,298.12,398.91,118Z"/><path class="cls-8" d="M284.32,750.64h978L1243,941.52H307.91L284.32,750.64Z"/><path class="cls-7" d="M777.6,750.64H284.32l23.59,190.88H777.6V750.64Z"/></g></g></svg>