<svg xmlns="http://www.w3.org/2000/svg" viewBox="0 0 406.99 200.99"><defs><style>.cls-1{fill:#1d1d1b;}.cls-2,.cls-4,.cls-5{fill:#fff;}.cls-2{stroke:#1d1d1b;stroke-width:2px;}.cls-3{fill:#f4951a;}.cls-5{stroke:#fff;}</style></defs><g id="Layer_2" data-name="Layer 2"><g id="Layer_1-2" data-name="Layer 1"><path class="cls-1" d="M406.53,18.68C376.22,41.09,299.2,68.15,294.7,66.57l10.95,26.94-10.95,34C370.82,148.71,411.83,105.87,406.53,18.68Z"/><path class="cls-2" d="M316.11,109.47l25.21-15.76v-.38L316.11,77.56V64.89l36.73,23.8v9.65l-36.73,23.8Z"/><path class="cls-1" d="M267.38,43.84c-15.5-.49-29.52,4.84-39,13.59h0c-4.63,3.85-9.6,6.35-15.06,7.06C199.36,62.59,99.23,25.28,58.42,0,46.79,80.16,75.48,125.73,157.68,125.4h0c-23.2,3.06-35.95,2.67-46.52.62v.12c-38-5.41-75-17.58-111.16-35.65,6.79,15.51,19.69,31.87,45.53,49.8a249.4,249.4,0,0,0,66.65,3c6.84,31.62,40.62,56.35,82,57.65,39.88,1.26,74.07-19.59,84.43-48.92,6-15.19,15.08-28.83,26.55-41.3.61-.61,1.2-1.25,1.77-1.89l.06-.07h0a35.67,35.67,0,0,0,9.1-22.41C316.84,63.74,295,44.72,267.38,43.84Z"/><g id="Layer_4" data-name="Layer 4"><path class="cls-3" d="M272.8,164c-28.48,27.39-51.7,16.67-50.89-1.6.34-10.79,46.87-33.72,21.3-62.32-8.13-10.75-5.07-21.65,7.17-32.68,9.7-8.53,24.84-10.65,41.55-10.91,5.92.18,14.8,12.08,20.39,13.14,6.13,11.84,4.81,24-3.16,36.39C301.37,117.28,280.23,152.64,272.8,164Z"/></g><path d="M336.84,94.83s-26.46,9.93-26.76,9.76c-21.67-12.44-.5-13.52,4.26-22,.3-.54,1.71-.39,2.26-.11L337,92.74a1.14,1.14,0,0,1,.48,1.54A1.09,1.09,0,0,1,336.84,94.83Z"/><ellipse class="cls-1" cx="278.72" cy="81.55" rx="6.9" ry="8.32" transform="matrix(0.03, -1, 1, 0.03, 188.4, 357.56)"/><ellipse class="cls-4" cx="275.15" cy="78.48" rx="2.71" ry="3.27" transform="translate(188.45 351.15) rotate(-88.28)"/><path class="cls-5" d="M155.39,97.6V88.16l36-23.3v12.4L166.68,92.69v.37l24.68,15.44v12.4Z"/></g></g></svg>