<svg xmlns="http://www.w3.org/2000/svg" xmlns:xlink="http://www.w3.org/1999/xlink" viewBox="0 0 162.83 244.96"><defs><style>.cls-1{fill:#1d1d1b;}.cls-2,.cls-3,.cls-4{fill:#fff;}.cls-2,.cls-3{stroke:#c6c6c5;stroke-miterlimit:10;}.cls-2{stroke-width:2px;}.cls-5{fill:#6a8b97;}.cls-6,.cls-7{opacity:0.27;}.cls-6{fill:url(#White_Black_2);}.cls-7{fill:url(#White_Black_2-2);}.cls-8{fill:#c6c6c5;}</style><linearGradient id="White_Black_2" x1="57.99" y1="101.07" x2="103.64" y2="101.07" gradientUnits="userSpaceOnUse"><stop offset="0" stop-color="#fff"/><stop offset="1" stop-color="#1d1d1b"/></linearGradient><linearGradient id="White_Black_2-2" x1="-40.69" y1="101.07" x2="0.17" y2="101.07" gradientTransform="matrix(-1, 0, 0, 1, 114.29, 0)" xlink:href="#White_Black_2"/></defs><g id="Layer_2" data-name="Layer 2"><g id="Layer_4" data-name="Layer 4"><path class="cls-1" d="M27.64,84.58c9.9,8.34-16.31,53-27.64,56.11,8,0,15-2.76,20.53-4.93-22,21.73,2,30.33,32.72,32.05-6.37-4.56-4.18-16,2.36-28C50.16,123.09,54,107.37,56.82,89.7l-21.08-.52Z"/><path class="cls-2" d="M104.35,189.67h0a49.88,49.88,0,0,1-49.88-49.88V71.64a49.88,49.88,0,0,1,49.88-49.88h0a49.88,49.88,0,0,1,49.88,49.88v68.15C152.44,169,131.18,189.85,104.35,189.67Z"/><path class="cls-3" d="M53.58,91C47.19,91,42,96.94,42,104.25s5.17,13.25,11.56,13.25c.3,0,.59,0,.89,0V91.06A8.85,8.85,0,0,0,53.58,91Z"/><path class="cls-4" d="M70.68,99.08c2.18-4.53,8.12-6.94,14.23-6.94,3.41,0,6.5.7,7.9,2.63,1.11,1.52.87,4,.87,6,0,4.43-4.94,7.78-11.05,7.78S68.77,103.07,70.68,99.08Z"/><path class="cls-4" d="M121.2,99.38c2.17-4.53,7.11-6.9,13.21-6.9,3.41,0,6.51.7,7.91,2.63,1.1,1.52.87,4,.87,6,0,4.43-4.95,7.78-11.05,7.78S119.29,103.37,121.2,99.38Z"/><path class="cls-1" d="M66.41,101.32l1.5,1.5c4-7.54,21.17-13.89,25.5-7.31l2.25,3.38-1.12-4.13C84.22,87.92,75.09,92.47,66.41,101.32Z"/><path class="cls-1" d="M71.57,103.13c6.5,4.91,15,5.54,19.83,2l2,1.08C85.8,111,74.66,109.07,71.57,103.13Z"/><ellipse class="cls-5" cx="89.26" cy="99.4" rx="3.56" ry="4.85"/><path class="cls-1" d="M118.91,101.35v5.06c2.6-12.94,19.78-16.78,24.11-10.2l.53,3.45a12.68,12.68,0,0,0,.6-4.2C135.31,87.71,125.17,90.59,118.91,101.35Z"/><path class="cls-1" d="M123.26,105.36c7.32,5.43,14.79,4.2,19.16-1.38l1.13.29C137.23,112.33,127.6,112,123.26,105.36Z"/><ellipse class="cls-5" cx="138.87" cy="100.1" rx="3.56" ry="4.85"/><path class="cls-6" d="M58.06,90.35c-.44,6.59,1.26,13,4.28,19.22,11.39,7.81,23.72,8.73,35.25.86,4.7-5,4.63-10.42,5.88-15.74A4.84,4.84,0,0,0,102.28,90,64.34,64.34,0,0,0,58.06,90.35Z"/><path class="cls-7" d="M154.92,91.12a42.53,42.53,0,0,1-3.77,19.23c-10.63,6.28-22.18,5.71-31.88,2.06-4.13-5-4-11.52-5.09-16.84-.34-1.71.7-3.41,1.88-4.83A50.18,50.18,0,0,1,154.92,91.12Z"/><path class="cls-1" d="M114.68,85.56a36.76,36.76,0,0,1,1.73-15.41c-.31,2.94-.32,5.66.76,7.54,12-3.74,21.83-2.55,28.67,5.4C138.22,80.77,120.46,80.92,114.68,85.56Z"/><path class="cls-1" d="M96.6,79.57c2.8-2.45,4.08-5.47,4.5-9.42C86,62,72.15,67.64,66.41,80,73.47,75.64,88.16,73.39,96.6,79.57Z"/><path class="cls-1" d="M53.66,121.2c3.47,8,2,15,8.82,20.58C73,210.82,155,189.67,149,137.86c2.42-2,5.74-16.36,5.94-22.05C164.4,228.13,39.51,204.07,53.66,121.2Z"/><path class="cls-2" d="M153.89,176.09C147,172,109.35,188,98.65,187.87c-9-.71-13.07-8.91-14-21.89C84,155.33,67.72,141.6,67.2,154.59l5.31,16.7c-8.3,21.12-1,56.6,13.42,66,16.09,10.54,29.88,8.46,41.54-5.33,3.69-.77,6.74.08,10.4,1.18,5.24-4.71,5.84-10.26.59-16.87l-6.46-3c3.08-.66,6.2-1,7.3-1.51,3.13-3.12,2.87-18.5-7-18.29,7.86-2.7,14.49-4.53,23.63-7.7C158.44,183.69,156.67,177.06,153.89,176.09Z"/><path class="cls-8" d="M115.31,137.46c-3.78,1.43-7.78.47-9.69-2.54,1.78-3.39,9.69-4.44,15.69-6.83A17.32,17.32,0,0,1,115.31,137.46Z"/><path class="cls-1" d="M104.35,163.21c5.2-4.65,10.11-6.18,14.56-2.72-.78,3.14-3.15,5.81-6,8.34A20,20,0,0,1,104.35,163.21Z"/><path class="cls-1" d="M58.06,90.35c11-5.45,32.78-9.43,46.43,0h9.09c2.08-3.06,7.41-4,12.77-4.89,8.63-1.09,18.32.38,28.62,3.33,1.22.63,1.8,1.42,1.36,2.45L155,97.91l-.67-5.12c0-7.31-38.81-4.5-38.77.45a24.82,24.82,0,0,0-.67,6.09c-4.67-2.59-9-2.69-12.4-.61a6.24,6.24,0,0,0-1.8-6.32C98.22,87.11,67.16,87,58.06,90.35Z"/><path class="cls-1" d="M94.44.51a.58.58,0,0,0-.15.11,31.42,31.42,0,0,0-8.45,2.14L61,10.32C40.54,15.45,6,79,37.4,92.9c6.43,3.92,7.28,9.87,5.76,15.2,8,1.07,23.11-16,16-31.12-4.7-40.76,55.43-60.79,62-39.43,22.34-14.23,39.51,32.61,31.68,41.39C182.11,63.48,142.18-6.62,94.44.51Z"/><path class="cls-1" d="M92.81,150.47c11.54,2.61,21.32-5.85,34.35-.2L124.91,152C115.46,150.08,104,156.42,92.81,150.47Z"/><path d="M111.09,106c1.68,7.83,5.76,16.36,8.89,19.81,3.61,3.32-1.41,10.86-6.14,12C125.32,131.56,109.83,114.17,111.09,106Z"/></g></g></svg>