<svg xmlns="http://www.w3.org/2000/svg" xmlns:xlink="http://www.w3.org/1999/xlink" viewBox="0 0 157.49 240.31"><defs><style>.cls-1,.cls-8{fill:#1d1d1b;}.cls-2,.cls-3,.cls-4,.cls-9{fill:#fff;}.cls-2,.cls-3{stroke:#c6c6c5;}.cls-2,.cls-3,.cls-8,.cls-9{stroke-miterlimit:10;}.cls-2{stroke-width:2px;}.cls-5{fill:#6a8b97;}.cls-6,.cls-7{opacity:0.27;}.cls-6{fill:url(#White_Black_2);}.cls-7{fill:url(#White_Black_2-2);}.cls-8,.cls-9{stroke:#1d1d1b;}.cls-10{fill:#c6c6c5;}</style><linearGradient id="White_Black_2" x1="56.75" y1="96.92" x2="102.41" y2="96.92" gradientUnits="userSpaceOnUse"><stop offset="0" stop-color="#fff"/><stop offset="1" stop-color="#1d1d1b"/></linearGradient><linearGradient id="White_Black_2-2" x1="289.17" y1="96.92" x2="330.03" y2="96.92" gradientTransform="matrix(-1, 0, 0, 1, 442.91, 0)" xlink:href="#White_Black_2"/></defs><g id="Layer_2" data-name="Layer 2"><g id="Layer_4" data-name="Layer 4"><path class="cls-1" d="M20.53,132.26c-22,21.29,2,29.71,32.72,31.39-6.37-4.46-4.18-15.64,2.36-27.46-5.45-16.35-1.64-31.75,1.21-49.06l-21.08-.51L28.41,63.07c1.49,27.9-17.08,71-28.41,74C7.73,138.06,15.12,138,20.53,132.26Z"/><path class="cls-2" d="M103.11,185.52h0a49.88,49.88,0,0,1-49.88-49.88V67.49A49.89,49.89,0,0,1,103.11,17.6h0A49.89,49.89,0,0,1,153,67.49v68.15C151.2,164.89,129.94,185.7,103.11,185.52Z"/><path class="cls-3" d="M52.34,86.86c-6.38,0-11.56,5.93-11.56,13.24S46,113.35,52.34,113.35c.3,0,.59,0,.89,0V86.91A8.85,8.85,0,0,0,52.34,86.86Z"/><path class="cls-4" d="M69.44,94.93C71.62,90.4,77.56,88,83.67,88c3.41,0,6.5.7,7.9,2.63,1.11,1.52.87,4,.87,6,0,4.42-4.94,7.78-11,7.78S67.53,98.92,69.44,94.93Z"/><path class="cls-4" d="M120,95.23c2.18-4.53,7.11-6.9,13.21-6.9,3.41,0,6.51.7,7.91,2.63,1.1,1.52.87,4,.87,6,0,4.42-4.95,7.78-11,7.78S118.05,99.22,120,95.23Z"/><path class="cls-1" d="M65.17,97.17l1.5,1.5c4-7.54,21.17-13.89,25.5-7.31l2.25,3.38L93.3,90.61C83,83.77,73.85,88.32,65.17,97.17Z"/><path class="cls-1" d="M70.33,99c6.5,4.91,15,5.54,19.83,2l2,1.08C84.56,106.83,73.42,104.92,70.33,99Z"/><ellipse class="cls-5" cx="88.02" cy="95.25" rx="3.56" ry="4.85"/><path class="cls-1" d="M117.67,97.2v5.06c2.61-12.94,19.78-16.78,24.11-10.2l.53,3.45a12.68,12.68,0,0,0,.6-4.2C134.07,83.56,123.93,86.44,117.67,97.2Z"/><path class="cls-1" d="M122,101.2c7.32,5.44,14.79,4.21,19.17-1.37l1.12.28C136,108.18,126.36,107.82,122,101.2Z"/><ellipse class="cls-5" cx="137.63" cy="95.95" rx="3.56" ry="4.85"/><path class="cls-6" d="M56.82,86.2c-.44,6.59,1.27,13,4.28,19.22,11.39,7.8,23.73,8.73,35.25.86,4.7-5,4.63-10.43,5.89-15.74a4.84,4.84,0,0,0-1.2-4.73A64.34,64.34,0,0,0,56.82,86.2Z"/><path class="cls-7" d="M153.68,87a42.53,42.53,0,0,1-3.77,19.23c-10.63,6.28-22.18,5.71-31.88,2.06-4.12-5-4-11.52-5.09-16.84-.34-1.71.7-3.42,1.88-4.84A50.23,50.23,0,0,1,153.68,87Z"/><path class="cls-8" d="M117.3,81.25A36.76,36.76,0,0,1,119,65.84c-.31,3-.32,5.66.76,7.54,12-3.74,21.83-2.54,28.67,5.4C140.85,76.46,123.08,76.61,117.3,81.25Z"/><path class="cls-8" d="M99.22,75.27c2.81-2.46,4.08-5.48,4.5-9.43C88.65,57.68,74.77,63.33,69,75.69,76.09,71.33,90.78,69.08,99.22,75.27Z"/><path class="cls-1" d="M52.42,117.05c3.47,8,2,15,8.82,20.58,10.53,69,92.5,47.89,86.54-3.92,2.42-2,5.74-16.37,5.95-22.05C163.16,224,38.27,199.92,52.42,117.05Z"/><path class="cls-9" d="M84.69,233.14c16.09,10.54,29.88,8.46,41.54-5.33,3.69-.77,6.74.08,10.4,1.18,5.24-4.71,5.84-10.26.59-16.87l-6.46-3c3.08-.65,6.2-1,7.3-1.5,3.13-3.13,2.87-18.5-7-18.29,7.86-2.7,14.49-4.53,23.63-7.7,2.53-2.09.76-8.73-2-9.69-6.9-4.14-44.54,11.94-55.24,11.78-9-.71-13.06-8.91-14-21.89-.63-10.66-16.9-24.38-17.42-11.4l5.31,16.71c-8.3,21.12-1,56.6,13.42,66"/><path class="cls-10" d="M116.49,133.23c-3.77,1.42-7.78.47-9.68-2.54,1.78-3.4,9.69-4.44,15.69-6.83A17.28,17.28,0,0,1,116.49,133.23Z"/><path class="cls-1" d="M103.11,159.05c5.2-4.64,10.11-6.17,14.56-2.71-.78,3.14-3.15,5.81-6,8.34A19.9,19.9,0,0,1,103.11,159.05Z"/><path class="cls-1" d="M56.82,86.2c11.05-5.45,32.79-9.43,46.43,0h9.09c2.08-3.07,7.41-4,12.77-4.89,8.63-1.09,18.33.38,28.63,3.33,1.21.63,1.79,1.42,1.35,2.45l-1.35,6.66-.68-5.11c0-7.31-38.81-4.5-38.77.45a24.82,24.82,0,0,0-.67,6.09c-4.67-2.59-9-2.69-12.4-.61a6.27,6.27,0,0,0-1.8-6.33C97,83,65.92,82.81,56.82,86.2Z"/><path class="cls-1" d="M29.4,82.92c6.76,3.84,2.92,17.79,1.33,23,8.4,1,23.35-11.64,22.5-28.47,1-49.48,53.58-59.93,64.38-41.06,23.42-10.67,38.93,18.18,30.7,26.78C169.6,42.72,153.6.92,103,0,70.24,0,19.09,1,29.4,82.92Z"/><path class="cls-1" d="M91.57,146.32c11.54,2.61,21.32-5.85,34.35-.2l-2.25,1.69C114.22,145.93,102.77,152.26,91.57,146.32Z"/><path d="M112.28,101.78c1.67,7.83,5.76,16.36,8.89,19.81,3.61,3.31-1.41,10.86-6.14,12C126.51,127.32,111,109.94,112.28,101.78Z"/></g></g></svg>