<svg xmlns="http://www.w3.org/2000/svg" xmlns:xlink="http://www.w3.org/1999/xlink" viewBox="0 0 156.05 244.45"><defs><style>.cls-1{fill:#1d1d1b;}.cls-2,.cls-3,.cls-7{fill:#fff;}.cls-2,.cls-7{stroke:#c6c6c5;stroke-miterlimit:10;}.cls-4{fill:#6a8b97;}.cls-5,.cls-6{opacity:0.27;}.cls-5{fill:url(#White_Black_2);}.cls-6{fill:url(#White_Black_2-2);}.cls-7{stroke-width:2px;}.cls-8{fill:#c6c6c5;}</style><linearGradient id="White_Black_2" x1="49.89" y1="100.56" x2="95.54" y2="100.56" gradientUnits="userSpaceOnUse"><stop offset="0" stop-color="#fff"/><stop offset="1" stop-color="#1d1d1b"/></linearGradient><linearGradient id="White_Black_2-2" x1="-48.79" y1="100.56" x2="-7.93" y2="100.56" gradientTransform="matrix(-1, 0, 0, 1, 98.09, 0)" xlink:href="#White_Black_2"/></defs><g id="Layer_2" data-name="Layer 2"><g id="Layer_4" data-name="Layer 4"><path class="cls-1" d="M26.32,88.21C33.92,96.13,8.69,139.1,0,142c6.11,0,16.64-3.12,20.87-5.18C4,157.5,22.38,165.67,46,167.3c-4.89-4.33-3.21-15.17,1.81-26.64-4.18-15.86-1.25-30.8.93-47.59l-16.17-.49Z"/><path class="cls-2" d="M96.25,189.17h0a49.89,49.89,0,0,1-49.88-49.89V71.13A49.88,49.88,0,0,1,96.25,21.25h0a49.88,49.88,0,0,1,49.88,49.88v68.15C144.34,168.54,123.08,189.35,96.25,189.17Z"/><path class="cls-2" d="M45.48,90.5c-6.39,0-11.56,5.93-11.56,13.25S39.09,117,45.48,117a8.85,8.85,0,0,0,.89,0V90.55C46.07,90.53,45.78,90.5,45.48,90.5Z"/><path class="cls-3" d="M62.58,98.58c2.18-4.54,8.12-7,14.23-7,3.41,0,6.5.71,7.9,2.63,1.11,1.52.87,4,.87,6,0,4.43-4.94,7.78-11,7.78S60.67,102.57,62.58,98.58Z"/><path class="cls-3" d="M113.1,98.87c2.17-4.53,7.11-6.9,13.21-6.9,3.41,0,6.51.71,7.91,2.63,1.1,1.52.87,4,.87,6,0,4.43-5,7.79-11,7.79S111.19,102.86,113.1,98.87Z"/><path class="cls-1" d="M58.31,100.82l1.5,1.5c4-7.55,21.17-13.9,25.5-7.31l2.25,3.37-1.12-4.12C76.12,87.42,67,92,58.31,100.82Z"/><path class="cls-1" d="M63.47,102.62c6.5,4.91,15,5.54,19.83,2l2,1.09C77.7,110.48,66.56,108.56,63.47,102.62Z"/><ellipse class="cls-4" cx="81.16" cy="98.9" rx="3.56" ry="4.85"/><path class="cls-1" d="M110.81,100.84v5.06c2.6-12.93,19.78-16.78,24.11-10.2l.53,3.45a12.65,12.65,0,0,0,.6-4.2C127.21,87.2,117.07,90.08,110.81,100.84Z"/><path class="cls-1" d="M115.16,104.85c7.32,5.43,14.79,4.2,19.16-1.37l1.13.28C129.13,111.82,119.5,111.47,115.16,104.85Z"/><ellipse class="cls-4" cx="130.77" cy="99.59" rx="3.56" ry="4.85"/><path class="cls-1" d="M108.62,40.78c2.68-3.52,6.19-12.45,3-18.63L103.52,8.83l7.41-4.58C117,5,122,10,126.49,16.67,152.7,8.79,168.2,76,144,78.43c7.68-8.77,4.68-18.77-1.4-27.75-1.59,13-4.15-22-27.26-14.14Z"/><path class="cls-5" d="M50,89.84c-.44,6.6,1.26,13,4.28,19.23,11.39,7.8,23.72,8.73,35.25.86,4.7-5.05,4.63-10.43,5.88-15.75a4.84,4.84,0,0,0-1.19-4.73A64.46,64.46,0,0,0,50,89.84Z"/><path class="cls-6" d="M146.82,90.62a42.65,42.65,0,0,1-3.77,19.22c-10.63,6.29-22.18,5.71-31.88,2.07-4.13-5-4-11.53-5.09-16.85-.34-1.7.7-3.41,1.88-4.83A50.14,50.14,0,0,1,146.82,90.62Z"/><path class="cls-1" d="M106.58,85.05a36.8,36.8,0,0,1,1.73-15.41c-.31,3-.32,5.66.76,7.55,12-3.75,21.83-2.55,28.67,5.39C130.12,80.26,112.36,80.41,106.58,85.05Z"/><path class="cls-1" d="M88.5,79.07c2.8-2.45,4.08-5.47,4.5-9.43-15.07-8.16-28.95-2.51-34.69,9.85C65.37,75.13,80.06,72.88,88.5,79.07Z"/><path class="cls-1" d="M45.56,120.69c3.47,8.05,2,15,8.82,20.58,10.53,69,92.49,47.9,86.54-3.91,2.42-2,5.74-16.37,5.94-22.06C156.3,227.63,31.41,203.57,45.56,120.69Z"/><path class="cls-7" d="M145.79,175.58c-6.9-4.14-44.54,11.95-55.24,11.78-9-.7-13.07-8.91-14-21.88-.63-10.66-16.9-24.38-17.42-11.4l5.31,16.71c-8.3,21.11-1,56.6,13.42,66,16.09,10.54,29.88,8.46,41.54-5.32,3.69-.77,6.74.08,10.4,1.17,5.24-4.7,5.84-10.25.59-16.87l-6.46-3c3.08-.66,6.2-1,7.3-1.5,3.13-3.13,2.87-18.51-7-18.3,7.86-2.7,14.49-4.53,23.63-7.7C150.34,183.19,148.57,176.55,145.79,175.58Z"/><path class="cls-8" d="M107.21,137c-3.78,1.42-7.78.47-9.69-2.55,1.78-3.39,9.69-4.44,15.69-6.82A17.39,17.39,0,0,1,107.21,137Z"/><path class="cls-1" d="M96.25,162.7c5.19-4.64,10.11-6.17,14.56-2.72-.78,3.15-3.15,5.82-6,8.34A20,20,0,0,1,96.25,162.7Z"/><path class="cls-1" d="M50,89.84c11-5.45,32.78-9.43,46.43,0h9.09c2.08-3.06,7.41-4,12.77-4.89,8.63-1.09,18.32.39,28.62,3.34,1.22.63,1.8,1.41,1.36,2.44l-1.36,6.67-.67-5.11c0-7.32-38.81-4.5-38.77.44a24.88,24.88,0,0,0-.67,6.09c-4.67-2.58-9-2.69-12.4-.61a6.24,6.24,0,0,0-1.8-6.32C90.12,86.6,59.06,86.46,50,89.84Z"/><path class="cls-1" d="M99.52,43.48c10.59-5.37,15.45-8.69,12.44-23C104.42,2.42,93.06-3.82,77.74,2.25L52.85,9.81C32.44,14.94-2.08,78.44,29.3,92.39c6.43,3.93,7.28,9.87,5.76,15.2,8,1.08,23.1-16,16-31.11C38.11,59.71,73.87,14,99.52,43.48Z"/><path class="cls-1" d="M84.71,150c11.54,2.61,21.32-5.84,34.35-.2l-2.25,1.69C107.36,149.57,95.91,155.91,84.71,150Z"/><path d="M103,105.51c1.68,7.83,5.76,16.36,8.89,19.8,3.61,3.32-1.41,10.86-6.14,12.05C117.22,131.05,101.73,113.67,103,105.51Z"/></g></g></svg>