<svg xmlns="http://www.w3.org/2000/svg" viewBox="0 0 451 512"><defs><style>.cls-1{fill:#e34f26;}.cls-2{fill:#ef652a;}.cls-3{fill:#ebebeb;}.cls-4{fill:#fff;}</style></defs><g id="Layer_2" data-name="Layer 2"><g id="Layer_1-2" data-name="Layer 1"><path class="cls-1" d="M41,460,0,0H451L410,460,225,512"/><path class="cls-2" d="M226,472l149-41L410,37H226"/><path class="cls-3" d="M226,208H151l-5-58h80V94H84l1,15L99,265H226Zm0,147h-1l-63-17-4-45H102l7,89,116,32h1Z"/><path class="cls-4" d="M225,208v57h70l-7,73-63,17v59l116-32,1-10,13-149,2-15H225Zm0-114v56H362l1-12,3-29,1-15Z"/></g></g></svg>